HIERARCHY
ROOT Root
{
	OFFSET 0.00000 0.00000 0.00000
	CHANNELS 6 Xposition Yposition Zposition Zrotation Xrotation Yrotation
	JOINT Hips
	{
		OFFSET 0 0 0	
		CHANNELS 3 Zrotation Xrotation Yrotation
		JOINT Spine
		{
			OFFSET 0 4 0	
			CHANNELS 3 Zrotation Xrotation Yrotation
			JOINT Spine1
			{
				OFFSET 0 19.4 0	
				CHANNELS 3 Zrotation Xrotation Yrotation
				JOINT Spine2
				{
					OFFSET 0 16.6 0	
					CHANNELS 3 Zrotation Xrotation Yrotation
					JOINT LeftCollar
					{
						OFFSET 0 10 0	
						CHANNELS 3 Zrotation Xrotation Yrotation
						JOINT LeftArm
						{
							OFFSET 15.6 -2 3	
							CHANNELS 3 Zrotation Xrotation Yrotation
							JOINT LeftForeArm
							{
								OFFSET 3.5 -27 -1	
								CHANNELS 3 Zrotation Xrotation Yrotation
								JOINT LeftHand
								{
									OFFSET 1 -27 1	
									CHANNELS 3 Zrotation Xrotation Yrotation
									End Site
									{
										OFFSET 0 -15 0
									}
								}
							}
						}
					}
					JOINT RightCollar
					{
						OFFSET 0 10 0	
						CHANNELS 3 Zrotation Xrotation Yrotation
						JOINT RightArm
						{
							OFFSET -15.6 -2 3	
							CHANNELS 3 Zrotation Xrotation Yrotation
							JOINT RightForeArm
							{
								OFFSET -3.5 -27 -1	
								CHANNELS 3 Zrotation Xrotation Yrotation
								JOINT RightHand
								{
									OFFSET -1 -27 1	
									CHANNELS 3 Zrotation Xrotation Yrotation
									End Site
									{
										OFFSET 0 -15 0
									}
								}
							}
						}
					}
					JOINT Neck
					{
						OFFSET 0 10 0	
						CHANNELS 3 Zrotation Xrotation Yrotation
						JOINT Head
						{
							OFFSET 0 12.7 3	
							CHANNELS 3 Zrotation Xrotation Yrotation
							End Site
							{
								OFFSET 0 12.7 3
							}
						}
					}
				}
			}
		}
	}
	JOINT LeftHip
	{
		OFFSET 0 0 0	
		CHANNELS 3 Zrotation Xrotation Yrotation
		JOINT LeftUpLeg
		{
			OFFSET 8.8 -6 0	
			CHANNELS 3 Zrotation Xrotation Yrotation
			JOINT LeftLeg
			{
				OFFSET 0 -39 2	
				CHANNELS 3 Zrotation Xrotation Yrotation
				JOINT LeftFoot
				{
					OFFSET 0 -43 -2	
					CHANNELS 3 Zrotation Xrotation Yrotation
					JOINT LeftFootFront
					{
						OFFSET 0 -7 8.5	
						CHANNELS 3 Zrotation Xrotation Yrotation
						End Site
						{
							OFFSET 0 -0.5 9
						}
					}
				}
				JOINT LeftHeel
				{
					OFFSET 0 -43 -2	
					CHANNELS 3 Zrotation Xrotation Yrotation
					End Site
					{
						OFFSET 0 -7.5 -5
					}
				}
			}
		}
	}
	JOINT RightHip
	{
		OFFSET 0 0 0	
		CHANNELS 3 Zrotation Xrotation Yrotation
		JOINT RightUpLeg
		{
			OFFSET -8.8 -6 0	
			CHANNELS 3 Zrotation Xrotation Yrotation
			JOINT RightLeg
			{
				OFFSET 0 -39 2	
				CHANNELS 3 Zrotation Xrotation Yrotation
				JOINT RightFoot
				{
					OFFSET 0 -43 -2	
					CHANNELS 3 Zrotation Xrotation Yrotation
					JOINT RightFootFront
					{
						OFFSET 0 -7 8.5	
						CHANNELS 3 Zrotation Xrotation Yrotation
						End Site
						{
							OFFSET 0 -0.5 9
						}
					}
				}
				JOINT RightHeel
				{
					OFFSET 0 -43 -2	
					CHANNELS 3 Zrotation Xrotation Yrotation
					End Site
					{
						OFFSET 0 -7.5 -5
					}
				}
			}
		}
	}
}
MOTION
Frames: 16
Frame Time: 0.05
0 95.631 0 -0 0 -0 -0.70116 0.14597 -1.838 -0.34733 -0.4678 2.0557 -0.34733 -0.4678 2.0557 -0.29289 -0.39212 1.7269 -0 0 -0 1.2434 0.40133 -10.686 0.018283 0.036918 1.2079 -2.1043 -3.0571 1.4402 -0 0 -0 0.66317 -0.096242 -4.7895 3.7421 -2.3302 2.8036 -0.95726 0.46197 -0.056555 1.8319 0.95375 -3.3956 1.5093 0.61659 -1.6569 -0.70116 0.14597 -1.838 -1.4293 1.1164 3.1504 -1.7037 -3.0551 7.6792 -0 0 -0 0 0 -3.8687e-07 -0 0 -0 -0.70116 0.14597 -1.838 -0.95899 -3.8237 -1.1567 -2.1789 2.8516 -2.5886 -0 0 -0 -0 0 5.0026e-08 -0 0 -0 
0 95.63 0 -0 0 -0 -0.68378 0.13192 -1.8516 -0.31145 -0.41693 2.0904 -0.31145 -0.41693 2.0904 -0.26264 -0.34946 1.7561 -0 0 -0 1.1024 0.26236 -10.756 0.021082 -0.13272 1.2842 -2.06 -3.0595 1.5119 -0 0 -0 0.49787 -0.28073 -4.7665 3.6931 -2.2833 2.8052 -0.87303 0.46507 -0.041453 1.581 0.74452 -3.4031 1.2947 0.44327 -1.638 -0.68378 0.13192 -1.8516 -1.2204 0.75146 3.196 -1.9684 -2.66 7.6934 -0 0 -0 -0 0 4.3356e-08 -0 0 -0 -0.68378 0.13192 -1.8516 -0.96864 -3.939 -1.1289 -2.1301 2.614 -2.864 -0 0 -0 0 0 -1.6008e-07 -0 0 -0 
0 95.629 0 -0 0 -0 -0.64012 0.13381 -1.8192 -0.28909 -0.39181 2.0868 -0.28909 -0.39181 2.0868 -0.24379 -0.32842 1.753 -0 0 -0 0.91289 0.2065 -10.625 0.12805 -0.34437 1.3136 -2.099 -2.9805 1.4744 -0 0 -0 0.35584 -0.42557 -4.7129 3.6221 -2.3301 2.8944 -0.73782 0.54794 -0.10858 1.4159 0.55796 -3.3451 1.1543 0.27269 -1.5845 -0.64012 0.13381 -1.8192 -1.3595 0.76616 3.2121 -1.9079 -2.7062 7.6765 -0 0 -0 -0 0 4.6691e-08 -0 0 -0 -0.64012 0.13381 -1.8192 -1.0174 -3.9325 -1.1112 -2.005 2.926 -2.8177 -0 0 -0 -0 0 2.1344e-07 -0 0 -0 
0 95.627 0 -0 0 -0 -0.58993 0.12506 -1.7533 -0.30367 -0.37357 2.1045 -0.30367 -0.37357 2.1045 -0.25601 -0.31305 1.7679 -0 0 -0 0.852 0.15243 -10.47 0.13589 -0.45906 1.1659 -2.0669 -2.903 1.481 -0 0 -0 0.34298 -0.53302 -4.7544 3.6423 -2.3207 2.9343 -0.70814 0.57622 -0.096161 1.4918 0.37662 -3.3548 1.2234 0.1095 -1.5794 -0.58993 0.12506 -1.7533 -1.4252 0.7144 3.1687 -1.7264 -2.7902 7.6806 -0 0 -0 -0 0 1.8343e-07 -0 0 -0 -0.58993 0.12506 -1.7533 -1.0452 -3.9372 -1.1303 -1.9168 2.5738 -2.5976 -0 0 -0 -0 0 6.0031e-08 -0 0 -0 
0 95.625 0 -0 0 -0 -0.53349 0.12072 -1.7076 -0.35483 -0.36655 2.1148 -0.35483 -0.36655 2.1148 -0.29897 -0.30703 1.7766 -0 0 -0 0.91662 0.14932 -10.323 0.20337 -0.43833 1.0476 -2.1298 -2.9158 1.4935 -0 0 -0 0.46567 -0.62532 -4.7227 3.6183 -2.3114 2.9374 -0.6366 0.57233 -0.11397 1.5187 0.21203 -3.3826 1.2124 -0.047912 -1.5985 -0.53349 0.12072 -1.7076 -1.3934 0.74007 3.1867 -1.6658 -2.7218 7.6573 -0 0 -0 0 0 -1.4674e-07 -0 0 -0 -0.53349 0.12072 -1.7076 -1.1779 -3.9185 -1.1681 -1.6896 2.413 -2.4365 -0 0 -0 -0 0 4.6691e-08 -0 0 -0 
0 95.621 0 -0 0 -0 -0.50486 0.15295 -1.575 -0.39816 -0.39303 2.0947 -0.39816 -0.39303 2.0947 -0.33542 -0.32917 1.7598 -0 0 -0 0.98687 0.10914 -10.25 0.16723 -0.30461 0.94846 -2.0663 -2.8757 1.5378 -0 0 -0 0.56099 -0.64458 -4.6862 3.614 -2.2535 2.9329 -0.58082 0.50758 -0.11951 1.512 0.24813 -3.4144 1.1682 -0.034625 -1.6466 -0.50486 0.15295 -1.575 -1.2274 0.61207 3.0875 -1.8165 -2.4614 7.6683 -0 0 -0 0 0 -3.9354e-07 -0 0 -0 -0.50486 0.15295 -1.575 -1.2756 -3.8953 -1.2581 -1.6917 2.2107 -2.4572 -0 0 -0 -0 0 4.0021e-08 -0 0 -0 
0 95.618 0 -0 0 -0 -0.49102 0.10714 -1.4864 -0.43138 -0.39951 2.0942 -0.43138 -0.39951 2.0942 -0.36334 -0.33453 1.7594 -0 0 -0 0.99413 0.16843 -10.135 0.32107 -0.20771 0.86823 -2.1336 -2.8446 1.5143 -0 0 -0 0.67094 -0.6114 -4.6784 3.5786 -2.1914 2.9375 -0.52347 0.4381 -0.12241 1.4101 0.26474 -3.4361 1.038 -0.026522 -1.6691 -0.49102 0.10714 -1.4864 -1.3046 0.69256 3.05 -1.8089 -2.4885 7.656 -0 0 -0 -0 0 3.6686e-07 -0 0 -0 -0.49102 0.10714 -1.4864 -1.272 -3.7763 -1.3175 -1.619 2.602 -2.4091 -0 0 -0 0 0 -7.0036e-08 -0 0 -0 
0 95.615 0 -0 0 -0 -0.45091 0.054111 -1.4016 -0.45194 -0.42995 2.1139 -0.45194 -0.42995 2.1139 -0.3807 -0.36004 1.7759 -0 0 -0 0.99732 0.31223 -10.022 0.40426 -0.086392 0.69286 -2.1689 -2.8497 1.5894 -0 0 -0 0.72283 -0.47807 -4.7692 3.4386 -2.1457 3.0393 -0.3986 0.40929 -0.14141 1.3768 0.38408 -3.4506 0.98346 0.066616 -1.6666 -0.45091 0.054111 -1.4016 -1.4167 0.8923 3.0649 -1.6374 -2.6273 7.6231 -0 0 -0 -0 0 4.2689e-07 -0 0 -0 -0.45091 0.054111 -1.4016 -1.2268 -3.6641 -1.3504 -2.079 2.3965 -2.5202 -0 0 -0 0 0 -6.0031e-08 -0 0 -0 
0 95.613 0 -0 0 -0 -0.37619 0.13171 -1.3012 -0.50644 -0.51422 2.1308 -0.50644 -0.51422 2.1308 -0.42669 -0.43068 1.7901 -0 0 -0 0.97131 0.45573 -10.013 0.46856 0.029458 0.6263 -2.1232 -2.899 1.6009 -0 0 -0 0.80571 -0.30113 -4.8334 3.3185 -2.1171 3.0976 -0.31488 0.38338 -0.15885 1.4053 0.52248 -3.4872 0.96152 0.13556 -1.6871 -0.37619 0.13171 -1.3012 -1.3719 1.0264 2.9794 -1.566 -2.8389 7.6724 -0 0 -0 -0 0 2.3012e-07 -0 0 -0 -0.37619 0.13171 -1.3012 -1.164 -3.7159 -1.3896 -1.8727 2.1714 -2.5739 -0 0 -0 -0 0 1.6342e-07 -0 0 -0 
0 95.609 0 -0 0 -0 -0.28265 0.18955 -1.1427 -0.57185 -0.56001 2.1141 -0.57185 -0.56001 2.1141 -0.48175 -0.469 1.7762 -0 0 -0 0.88196 0.57442 -9.7891 0.6573 0.082645 0.38857 -2.1641 -2.9678 1.6322 -0 0 -0 0.88671 -0.22004 -4.8329 3.1934 -2.0809 3.1091 -0.23827 0.41376 -0.11863 1.4281 0.60713 -3.4998 0.92675 0.18224 -1.7126 -0.28265 0.18955 -1.1427 -1.2785 1.0527 2.8116 -1.6852 -2.8684 7.7368 -0 0 -0 0 0 -3.2017e-07 -0 0 -0 -0.28265 0.18955 -1.1427 -1.2321 -3.8392 -1.4595 -1.7475 2.038 -2.5587 -0 0 -0 -0 0 6.6701e-09 -0 0 -0 
0 95.606 0 -0 0 -0 -0.2034 0.29045 -0.99271 -0.60805 -0.6335 2.0991 -0.60805 -0.6335 2.0991 -0.51233 -0.53065 1.7637 -0 0 -0 0.88259 0.60921 -9.7867 0.66107 0.18421 0.36595 -2.1608 -3.0616 1.6116 -0 0 -0 0.93017 -0.1191 -4.8247 3.1124 -2.0667 3.0698 -0.26921 0.45028 -0.066187 1.3815 0.75475 -3.4412 0.84514 0.2664 -1.6653 -0.2034 0.29045 -0.99271 -1.2745 0.8743 2.7248 -1.8173 -2.8274 7.7315 -0 0 -0 -0 0 1.8676e-07 -0 0 -0 -0.2034 0.29045 -0.99271 -1.2759 -4.0481 -1.5081 -1.8931 2.6668 -2.3735 -0 0 -0 0 0 -1.7342e-07 -0 0 -0 
0 95.605 0 -0 0 -0 -0.17131 0.28499 -0.83344 -0.59923 -0.65312 2.0703 -0.59923 -0.65312 2.0703 -0.50494 -0.54717 1.7395 -0 0 -0 0.86861 0.60889 -9.7926 0.5596 0.24075 0.36768 -2.1439 -3.053 1.5558 -0 0 -0 0.86118 -0.086115 -4.7901 3.1134 -2.0307 2.9983 -0.32535 0.50734 -0.00019401 1.3497 0.79607 -3.3931 0.81981 0.28965 -1.6412 -0.17131 0.28499 -0.83344 -1.2785 0.70018 2.6003 -1.8897 -2.695 7.7464 -0 0 -0 0 0 -3.5685e-07 -0 0 -0 -0.17131 0.28499 -0.83344 -1.4223 -4.0647 -1.6016 -2.232 3.0129 -2.3761 -0 0 -0 0 0 -5.0026e-09 -0 0 -0 
0 95.607 0 -0 0 -0 -0.27332 0.31792 -0.6907 -0.52914 -0.67077 2.0374 -0.52914 -0.67077 2.0374 -0.44608 -0.56219 1.7118 -0 0 -0 0.87834 0.64888 -9.8353 0.47377 0.013697 0.41957 -2.143 -2.9475 1.5299 -0 0 -0 0.75353 -0.10832 -4.7616 3.1863 -1.9706 2.9112 -0.42334 0.50136 0.032146 1.2958 0.79558 -3.3586 0.82522 0.27188 -1.6346 -0.27332 0.31792 -0.6907 -1.3478 0.51297 2.553 -1.7088 -2.4543 7.7383 -0 0 -0 0 0 -2.001e-08 -0 0 -0 -0.27332 0.31792 -0.6907 -1.4889 -4.0616 -1.6544 -1.6647 2.9631 -2.3773 -0 0 -0 0 0 -5.3361e-08 -0 0 -0 
0 95.612 0 -0 0 -0 -0.39972 0.34671 -0.56011 -0.43262 -0.70135 1.9969 -0.43262 -0.70135 1.9969 -0.36504 -0.58813 1.6777 -0 0 -0 0.7847 0.68766 -9.8923 0.4268 -0.077923 0.48092 -2.1238 -2.8968 1.5089 -0 0 -0 0.66574 -0.073109 -4.7183 3.1891 -1.9487 2.8163 -0.51704 0.54349 0.12499 1.2678 0.84782 -3.3267 0.87724 0.29659 -1.6364 -0.39972 0.34671 -0.56011 -0.99756 0.40767 2.436 -1.7828 -2.251 7.8387 -0 0 -0 -0 0 2.668e-07 -0 0 -0 -0.39972 0.34671 -0.56011 -1.3957 -4.0482 -1.6795 -1.7041 2.6656 -2.4978 -0 0 -0 0 0 -1.8343e-07 -0 0 -0 
0 95.62 0 -0 0 -0 -0.45903 0.39485 -0.47127 -0.3778 -0.75164 1.9657 -0.3778 -0.75164 1.9657 -0.31909 -0.63051 1.6515 -0 0 -0 0.72987 0.71896 -9.9432 0.40811 -0.011552 0.54978 -2.0575 -2.8417 1.4817 -0 0 -0 0.64359 0.037405 -4.7136 3.2229 -1.9476 2.7907 -0.46141 0.57029 0.10919 1.2938 0.90136 -3.3024 0.948 0.30791 -1.6371 -0.45903 0.39485 -0.47127 -1.0524 0.20099 2.3958 -1.8458 -2.2149 7.8318 -0 0 -0 -0 0 -0 -0 0 -0 -0.45903 0.39485 -0.47127 -1.4625 -4.1474 -1.6698 -1.6358 3.2454 -2.4832 -0 0 -0 0 0 -7.8374e-08 -0 0 -0 
0 95.627 0 -0 0 -0 -0.49911 0.42007 -0.44533 -0.30645 -0.80517 1.9527 -0.30645 -0.80517 1.9527 -0.25926 -0.67565 1.6406 -0 0 -0 0.67622 0.79811 -9.9613 0.28689 0.1013 0.60677 -2.0189 -2.8287 1.4297 -0 0 -0 0.55717 0.19829 -4.7183 3.2704 -1.9823 2.8064 -0.44266 0.59565 0.11412 1.2606 0.98114 -3.2907 0.97258 0.34133 -1.6358 -0.49911 0.42007 -0.44533 -1.1151 0.25532 2.3668 -1.8766 -2.5121 7.8776 -0 0 -0 0 0 -3.6019e-07 -0 0 -0 -0.49911 0.42007 -0.44533 -1.4405 -4.1793 -1.6475 -1.5039 2.9709 -2.5974 -0 0 -0 -0 0 1.2006e-07 -0 0 -0 
